<mxfile host="Electron" modified="2024-05-07T10:15:00.878Z" agent="Mozilla/5.0 (Windows NT 10.0; Win64; x64) AppleWebKit/537.36 (KHTML, like Gecko) draw.io/24.2.5 Chrome/120.0.6099.109 Electron/28.1.0 Safari/537.36" etag="Q11HltUEPloy3gZTEeSQ" version="24.2.5" type="device">
  <diagram id="nKKd3QtlIbt0xHlbVClu" name="Pagina-1">
    <mxGraphModel dx="1050" dy="621" grid="1" gridSize="10" guides="1" tooltips="1" connect="1" arrows="1" fold="1" page="1" pageScale="1" pageWidth="827" pageHeight="1169" math="0" shadow="0">
      <root>
        <mxCell id="0" />
        <mxCell id="1" parent="0" />
        <mxCell id="uco9DxDFnT0rvYRBJsGG-12" value="&lt;span style=&quot;font-size: 8px;&quot;&gt;(0,N)&lt;/span&gt;" style="text;html=1;align=center;verticalAlign=middle;whiteSpace=wrap;rounded=1;strokeColor=none;glass=0;" parent="1" vertex="1">
          <mxGeometry x="249.99000000000007" y="176.51000000000002" width="22.5" height="6.75" as="geometry" />
        </mxCell>
        <mxCell id="uco9DxDFnT0rvYRBJsGG-13" value="&lt;font style=&quot;font-size: 8px;&quot;&gt;(0,N)&lt;/font&gt;" style="text;html=1;align=center;verticalAlign=middle;whiteSpace=wrap;rounded=1;strokeColor=none;glass=0;" parent="1" vertex="1">
          <mxGeometry x="360" y="178.25999999999993" width="22.5" height="6.75" as="geometry" />
        </mxCell>
        <mxCell id="uco9DxDFnT0rvYRBJsGG-14" value="" style="endArrow=none;html=1;rounded=0;entryX=1;entryY=0.5;entryDx=0;entryDy=0;exitX=0;exitY=0.5;exitDx=0;exitDy=0;" parent="1" source="uco9DxDFnT0rvYRBJsGG-15" edge="1">
          <mxGeometry width="50" height="50" relative="1" as="geometry">
            <mxPoint x="450.19000000000005" y="193.26" as="sourcePoint" />
            <mxPoint x="182" y="193.26" as="targetPoint" />
          </mxGeometry>
        </mxCell>
        <mxCell id="uco9DxDFnT0rvYRBJsGG-40" style="edgeStyle=orthogonalEdgeStyle;rounded=0;orthogonalLoop=1;jettySize=auto;html=1;exitX=0.25;exitY=0;exitDx=0;exitDy=0;endArrow=oval;endFill=1;" parent="1" source="uco9DxDFnT0rvYRBJsGG-43" edge="1">
          <mxGeometry relative="1" as="geometry">
            <mxPoint x="472.3333333333335" y="164.74" as="targetPoint" />
          </mxGeometry>
        </mxCell>
        <mxCell id="uco9DxDFnT0rvYRBJsGG-41" style="edgeStyle=orthogonalEdgeStyle;rounded=0;orthogonalLoop=1;jettySize=auto;html=1;exitX=0.75;exitY=0;exitDx=0;exitDy=0;endArrow=oval;endFill=0;" parent="1" source="uco9DxDFnT0rvYRBJsGG-43" edge="1">
          <mxGeometry relative="1" as="geometry">
            <mxPoint x="516" y="164.74" as="targetPoint" />
          </mxGeometry>
        </mxCell>
        <mxCell id="uco9DxDFnT0rvYRBJsGG-43" value="Esperienza" style="whiteSpace=wrap;html=1;align=center;" parent="1" vertex="1">
          <mxGeometry x="450" y="180.99" width="90" height="28.75" as="geometry" />
        </mxCell>
        <mxCell id="uco9DxDFnT0rvYRBJsGG-48" value="&lt;font style=&quot;font-size: 8px;&quot;&gt;Nome&lt;/font&gt;" style="text;html=1;align=center;verticalAlign=middle;whiteSpace=wrap;rounded=1;strokeColor=none;" parent="1" vertex="1">
          <mxGeometry x="451.63" y="144.76" width="40" height="20" as="geometry" />
        </mxCell>
        <mxCell id="uco9DxDFnT0rvYRBJsGG-49" value="&lt;font style=&quot;font-size: 8px;&quot;&gt;Descrizione&lt;/font&gt;" style="text;html=1;align=center;verticalAlign=middle;whiteSpace=wrap;rounded=1;strokeColor=none;" parent="1" vertex="1">
          <mxGeometry x="497.88" y="145.99" width="40" height="20" as="geometry" />
        </mxCell>
        <mxCell id="uco9DxDFnT0rvYRBJsGG-50" value="&lt;font style=&quot;font-size: 8px;&quot;&gt;Durata&lt;/font&gt;" style="text;html=1;align=center;verticalAlign=middle;whiteSpace=wrap;rounded=1;strokeColor=none;" parent="1" vertex="1">
          <mxGeometry x="561" y="178.24" width="40" height="20" as="geometry" />
        </mxCell>
        <mxCell id="uco9DxDFnT0rvYRBJsGG-63" value="&lt;font style=&quot;font-size: 8px;&quot;&gt;Luogo&lt;/font&gt;" style="text;html=1;align=center;verticalAlign=middle;whiteSpace=wrap;rounded=1;strokeColor=none;" parent="1" vertex="1">
          <mxGeometry x="560" y="191.74" width="40" height="20" as="geometry" />
        </mxCell>
        <mxCell id="uco9DxDFnT0rvYRBJsGG-107" style="edgeStyle=orthogonalEdgeStyle;rounded=0;orthogonalLoop=1;jettySize=auto;html=1;exitX=1;exitY=0.5;exitDx=0;exitDy=0;endArrow=oval;endFill=0;" parent="1" edge="1">
          <mxGeometry relative="1" as="geometry">
            <mxPoint x="540" y="190.04000000000002" as="sourcePoint" />
            <mxPoint x="563.12" y="190.04000000000002" as="targetPoint" />
          </mxGeometry>
        </mxCell>
        <mxCell id="uco9DxDFnT0rvYRBJsGG-108" style="edgeStyle=orthogonalEdgeStyle;rounded=0;orthogonalLoop=1;jettySize=auto;html=1;exitX=1;exitY=0.5;exitDx=0;exitDy=0;endArrow=oval;endFill=0;" parent="1" edge="1">
          <mxGeometry relative="1" as="geometry">
            <mxPoint x="540" y="203.74" as="sourcePoint" />
            <mxPoint x="563" y="203.74" as="targetPoint" />
            <Array as="points">
              <mxPoint x="556" y="203.74" />
            </Array>
          </mxGeometry>
        </mxCell>
        <mxCell id="uco9DxDFnT0rvYRBJsGG-196" value="" style="endArrow=none;html=1;rounded=0;entryX=1;entryY=0.5;entryDx=0;entryDy=0;exitX=0;exitY=0.5;exitDx=0;exitDy=0;" parent="1" target="uco9DxDFnT0rvYRBJsGG-15" edge="1">
          <mxGeometry width="50" height="50" relative="1" as="geometry">
            <mxPoint x="450.19000000000005" y="193.26" as="sourcePoint" />
            <mxPoint x="182" y="193.26" as="targetPoint" />
          </mxGeometry>
        </mxCell>
        <mxCell id="uco9DxDFnT0rvYRBJsGG-15" value="Partecipazione" style="shape=rhombus;perimeter=rhombusPerimeter;whiteSpace=wrap;html=1;align=center;" parent="1" vertex="1">
          <mxGeometry x="266.63" y="167.76" width="103.56" height="52.36" as="geometry" />
        </mxCell>
        <mxCell id="uIWVugsDQ7VNpBwRHG7O-1" value="&lt;font style=&quot;font-size: 8px;&quot;&gt;Ora&lt;/font&gt;" style="text;html=1;align=center;verticalAlign=middle;whiteSpace=wrap;rounded=1;strokeColor=none;glass=0;" vertex="1" parent="1">
          <mxGeometry x="39.999999999999886" y="144.36" width="50" height="15" as="geometry" />
        </mxCell>
        <mxCell id="uIWVugsDQ7VNpBwRHG7O-2" value="&lt;font style=&quot;font-size: 8px;&quot;&gt;Ora Fine&lt;/font&gt;" style="text;html=1;align=center;verticalAlign=middle;whiteSpace=wrap;rounded=1;strokeColor=none;glass=0;" vertex="1" parent="1">
          <mxGeometry x="156.57999999999993" y="225.68" width="42" height="19" as="geometry" />
        </mxCell>
        <mxCell id="uIWVugsDQ7VNpBwRHG7O-3" value="&lt;font style=&quot;font-size: 8px;&quot;&gt;Data&lt;/font&gt;" style="text;html=1;align=center;verticalAlign=middle;whiteSpace=wrap;rounded=1;strokeColor=none;glass=0;" vertex="1" parent="1">
          <mxGeometry x="39.999999999999886" y="131.8" width="50" height="15" as="geometry" />
        </mxCell>
        <mxCell id="uIWVugsDQ7VNpBwRHG7O-4" style="edgeStyle=orthogonalEdgeStyle;rounded=0;orthogonalLoop=1;jettySize=auto;html=1;exitX=0;exitY=0;exitDx=0;exitDy=0;endArrow=oval;endFill=0;" edge="1" parent="1">
          <mxGeometry relative="1" as="geometry">
            <mxPoint x="78" y="141.15999999999997" as="targetPoint" />
            <mxPoint x="97.38000000000011" y="141.15999999999997" as="sourcePoint" />
            <Array as="points" />
          </mxGeometry>
        </mxCell>
        <mxCell id="uIWVugsDQ7VNpBwRHG7O-5" style="edgeStyle=orthogonalEdgeStyle;rounded=0;orthogonalLoop=1;jettySize=auto;html=1;endArrow=oval;endFill=0;" edge="1" parent="1">
          <mxGeometry relative="1" as="geometry">
            <mxPoint x="78" y="154.27999999999997" as="targetPoint" />
            <mxPoint x="98" y="154.27999999999997" as="sourcePoint" />
            <Array as="points" />
          </mxGeometry>
        </mxCell>
        <mxCell id="uIWVugsDQ7VNpBwRHG7O-6" value="" style="endArrow=none;html=1;rounded=0;entryX=0.551;entryY=1.003;entryDx=0;entryDy=0;entryPerimeter=0;" edge="1" parent="1">
          <mxGeometry width="50" height="50" relative="1" as="geometry">
            <mxPoint x="107.5" y="179.89999999999998" as="sourcePoint" />
            <mxPoint x="107.5" y="156.84000000000003" as="targetPoint" />
          </mxGeometry>
        </mxCell>
        <mxCell id="uIWVugsDQ7VNpBwRHG7O-7" value="&lt;p style=&quot;line-height: 110%;&quot;&gt;&lt;font style=&quot;font-size: 7px;&quot;&gt;DataVisita&lt;/font&gt;&lt;/p&gt;" style="ellipse;whiteSpace=wrap;html=1;" vertex="1" parent="1">
          <mxGeometry x="90" y="136.77999999999997" width="36.12" height="20" as="geometry" />
        </mxCell>
        <mxCell id="uIWVugsDQ7VNpBwRHG7O-8" style="edgeStyle=orthogonalEdgeStyle;rounded=0;orthogonalLoop=1;jettySize=auto;html=1;exitX=1;exitY=0.5;exitDx=0;exitDy=0;endArrow=oval;endFill=0;" edge="1" parent="1">
          <mxGeometry relative="1" as="geometry">
            <mxPoint x="174.55999999999995" y="225.73000000000002" as="targetPoint" />
            <mxPoint x="174.43999999999983" y="205.745" as="sourcePoint" />
            <Array as="points">
              <mxPoint x="174.55999999999995" y="225.73000000000002" />
            </Array>
          </mxGeometry>
        </mxCell>
        <mxCell id="uIWVugsDQ7VNpBwRHG7O-9" value="&lt;font style=&quot;font-size: 8px;&quot;&gt;Durata&lt;/font&gt;" style="text;html=1;align=center;verticalAlign=middle;whiteSpace=wrap;rounded=1;strokeColor=none;glass=0;" vertex="1" parent="1">
          <mxGeometry x="88.07999999999993" y="221.78000000000003" width="50" height="17" as="geometry" />
        </mxCell>
        <mxCell id="uIWVugsDQ7VNpBwRHG7O-10" style="edgeStyle=orthogonalEdgeStyle;rounded=0;orthogonalLoop=1;jettySize=auto;html=1;exitX=1;exitY=0.5;exitDx=0;exitDy=0;endArrow=oval;endFill=0;" edge="1" parent="1">
          <mxGeometry relative="1" as="geometry">
            <mxPoint x="111.96000000000004" y="224.82000000000005" as="targetPoint" />
            <mxPoint x="111.55000000000018" y="204.39999999999998" as="sourcePoint" />
            <Array as="points">
              <mxPoint x="111.55000000000018" y="224.39999999999998" />
            </Array>
          </mxGeometry>
        </mxCell>
        <mxCell id="uIWVugsDQ7VNpBwRHG7O-11" style="edgeStyle=orthogonalEdgeStyle;rounded=0;orthogonalLoop=1;jettySize=auto;html=1;exitX=0.25;exitY=0;exitDx=0;exitDy=0;entryX=0.842;entryY=1.009;entryDx=0;entryDy=0;entryPerimeter=0;endArrow=oval;endFill=1;" edge="1" parent="1">
          <mxGeometry relative="1" as="geometry">
            <mxPoint x="138.12999999999988" y="179.46000000000004" as="sourcePoint" />
            <mxPoint x="141.12999999999988" y="166.46000000000004" as="targetPoint" />
          </mxGeometry>
        </mxCell>
        <mxCell id="uIWVugsDQ7VNpBwRHG7O-12" value="&lt;font style=&quot;font-size: 9px;&quot;&gt;Codice&lt;/font&gt;" style="text;html=1;align=center;verticalAlign=middle;whiteSpace=wrap;rounded=0;" vertex="1" parent="1">
          <mxGeometry x="119.62999999999988" y="146.80101167315172" width="40" height="17.314202334630348" as="geometry" />
        </mxCell>
        <mxCell id="uIWVugsDQ7VNpBwRHG7O-13" value="Visita" style="whiteSpace=wrap;html=1;align=center;" vertex="1" parent="1">
          <mxGeometry x="94.44000000000005" y="179.46000000000004" width="90.38" height="26.28" as="geometry" />
        </mxCell>
      </root>
    </mxGraphModel>
  </diagram>
</mxfile>
